# xmcd CD database file
#
# Track frame offsets:
#	150
#	24425
#	40037
#	59800
#	86067
#	115680
#	140207
#	164045
#	192037
#	218497
#	250467
#	273297
#	296645
#	322494
#
# Disc length: 4565 seconds
#
# Revision: 0
# Processed by: cddbd v1.5.2PL0 Copyright (c) Steve Scherf et al.
# Submitted via: CDex 1.70beta2
#
DISCID=dd11d30e
DTITLE=トーマス・ハーデン・トリオ - JAZZで聴く…J-POP5
DYEAR=2002
DGENRE=Jazz
TTITLE0=長い間
TTITLE1=恋の予感
TTITLE2=碧い瞳のエリス
TTITLE3=Love is…
TTITLE4=あなただけを-Summer Heartbreak-
TTITLE5=PROMISE
TTITLE6=誰より好きなのに
TTITLE7=カムフラージュ
TTITLE8=マンハッタン・キス
TTITLE9=One more time, One more kiss
TTITLE10=告白
TTITLE11=悲しみにさよなら
TTITLE12=夏の終わりのハーモニー
TTITLE13=ひだまりの詩
EXTD=YEAR: 2002
EXTT0=
EXTT1=
EXTT2=
EXTT3=
EXTT4=
EXTT5=
EXTT6=
EXTT7=
EXTT8=
EXTT9=
EXTT10=
EXTT11=
EXTT12=
EXTT13=
PLAYORDER=
